# xmcd
#
# Track frame offsets: 
#        150
#        12080
#        22900
#        33707
#        47368
#        60132
#        73868
#        84586
#        95931
#        106420
#        118991
#        132548
#        144026
#        156376
#        170445
#        181483
#        191796
#        201144
#        213526
#        228147
#        237560
#        247945
#        263142
#        276618
#        286581
#
# Disc length: 3998 seconds
#
# Revision: 2
# Processed by: cddbd v1.5.2PL0 Copyright (c) Steve Scherf et al.
# Submitted via: ExactAudioCopy v1.0b3
#
DISCID=6d0f9c19
DTITLE=Ford, Tennessee Ernie - Hey Good Lookin'
DYEAR=2002
DGENRE=Rockabilly
TTITLE0=Smokey Mountain Boogie
TTITLE1=Country Junction
TTITLE2=Milk 'Em In The Morning Blues
TTITLE3=Mule Train
TTITLE4=Cincinnati Dancing Pig
TTITLE5=Bright Lights And Blonde Haired Women
TTITLE6=I Ain't Gonna Let It Happen No More
TTITLE7=My Hobby
TTITLE8=Tailor Made Woman
TTITLE9=Stack-O-Lee
TTITLE10=Kentucky Waltz
TTITLE11=The Shotgun Boogie
TTITLE12=She's My Baby
TTITLE13=Mister And Mississippi
TTITLE14=Feed 'Em In The Morning Blues
TTITLE15=Ford, Tennessee Ernie with Eddie Kirk - Leetle Juan Pedro
TTITLE16=Kissin' Bug Boogie
TTITLE17=Woman Is A Five Letter Word
TTITLE18=Cry Of The Wild Goose
TTITLE19=Ford, Tennessee Ernie with Helen O'Connell - Hey, Good Lookin
TTITLE19='
TTITLE20=Ford, Tennessee Ernie with Helen O'Connell - Cool Cool Kisses
TTITLE21=Philadelphia Lawyer
TTITLE22=The Strange Little Girl
TTITLE23=Ford, Tennessee Ernie with The Dinning Sisters - Rock City Bo
TTITLE23=ogie
TTITLE24=Ford, Tennessee Ernie with The Dinning Sisters - Streamlined 
TTITLE24=Cannon Ball
EXTD=
EXTT0=
EXTT1=
EXTT2=
EXTT3=
EXTT4=
EXTT5=
EXTT6=
EXTT7=
EXTT8=
EXTT9=
EXTT10=
EXTT11=
EXTT12=
EXTT13=
EXTT14=
EXTT15=
EXTT16=
EXTT17=
EXTT18=
EXTT19=
EXTT20=
EXTT21=
EXTT22=
EXTT23=
EXTT24=
PLAYORDER=
